<?xml version="1.0" encoding="UTF-8" standalone="no"?>
<!-- Uploaded to: SVG Repo, www.svgrepo.com, Generator: SVG Repo Mixer Tools -->

<svg
   width="800px"
   height="800px"
   viewBox="0 0 24 24"
   fill="none"
   version="1.1"
   id="svg1"
   sodipodi:docname="settings_icon.svg"
   inkscape:version="1.4.2 (f4327f4, 2025-05-13)"
   xml:space="preserve"
   xmlns:inkscape="http://www.inkscape.org/namespaces/inkscape"
   xmlns:sodipodi="http://sodipodi.sourceforge.net/DTD/sodipodi-0.dtd"
   xmlns="http://www.w3.org/2000/svg"
   xmlns:svg="http://www.w3.org/2000/svg"><defs
     id="defs1" /><sodipodi:namedview
     id="namedview1"
     pagecolor="#ffffff"
     bordercolor="#000000"
     borderopacity="0.25"
     inkscape:showpageshadow="2"
     inkscape:pageopacity="0.0"
     inkscape:pagecheckerboard="0"
     inkscape:deskcolor="#d1d1d1"
     inkscape:zoom="0.71329397"
     inkscape:cx="438.10829"
     inkscape:cy="411.4713"
     inkscape:window-width="1920"
     inkscape:window-height="1057"
     inkscape:window-x="-8"
     inkscape:window-y="-8"
     inkscape:window-maximized="1"
     inkscape:current-layer="svg1" /><rect
     style="fill:#333333;fill-opacity:1;stroke:none;stroke-width:0.3"
     id="rect2"
     width="24"
     height="24"
     x="0"
     y="0"
     ry="3.75" /><path
     d="m 9.1170326,22.483525 -0.419341,-3.354728 q -0.340715,-0.131045 -0.642116,-0.314506 -0.301401,-0.183462 -0.589699,-0.393133 l -3.118848,1.310441 -2.8829694,-4.979674 2.6995071,-2.044288 q -0.026206,-0.183461 -0.026206,-0.353818 v -0.707638 q 0,-0.170532 0.026206,-0.35382 L 1.4640592,9.2480751 4.3470286,4.2684005 7.4658766,5.5788411 q 0.288298,-0.2096705 0.602803,-0.3931322 0.314507,-0.1834616 0.629012,-0.3145057 l 0.419341,-3.354728 h 5.7659394 l 0.419341,3.354728 q 0.342462,0.1310441 0.642291,0.3145057 0.300527,0.1834617 0.589523,0.3931322 l 3.118849,-1.3104406 2.882969,4.9796746 -2.699508,2.0442879 q 0.02621,0.183461 0.02621,0.353818 v 0.707638 q 0,0.170532 -0.05241,0.353819 l 2.699507,2.044288 -2.882969,4.979674 -3.09264,-1.31044 q -0.288299,0.209669 -0.602804,0.393131 -0.314506,0.183461 -0.629012,0.314506 l -0.419341,3.354728 z M 10.95165,20.38682 h 2.070496 l 0.366923,-2.778134 q 0.812474,-0.209671 1.507007,-0.615908 0.694533,-0.406236 1.271127,-0.982829 l 2.594673,1.074561 1.022143,-1.7822 -2.253957,-1.703572 q 0.131044,-0.366924 0.183462,-0.77316 0.05241,-0.406237 0.05241,-0.825578 0,-0.419341 -0.05241,-0.825578 -0.05242,-0.406237 -0.183462,-0.77316 L 19.784019,8.6976898 18.761876,6.9154906 16.167203,8.0162607 Q 15.590609,7.4134586 14.896076,7.0072217 14.201543,6.6009848 13.389069,6.3913143 L 13.048355,3.6131802 H 10.977858 L 10.610935,6.3913143 Q 9.798462,6.6009848 9.1039286,7.0072217 8.4093946,7.4134586 7.8327996,7.9900524 L 5.2381282,6.9154906 4.2159839,8.6976898 6.4699418,10.375054 Q 6.3388983,10.768185 6.2864807,11.161318 6.2340687,11.554451 6.2340687,12 q 0,0.419341 0.052412,0.812474 0.052423,0.393131 0.1852089,0.786264 l -2.2557057,1.703572 1.0221443,1.7822 2.5946714,-1.100771 q 0.576595,0.602803 1.270954,1.009039 0.6947084,0.406237 1.5071814,0.615908 z m 1.10077,-4.717586 q 1.520111,0 2.594672,-1.074562 Q 15.721654,13.520111 15.721654,12 q 0,-1.520111 -1.074562,-2.5946719 -1.074561,-1.0745617 -2.594672,-1.0745617 -1.54632,0 -2.6076024,1.0745617 Q 8.3831866,10.479889 8.3831866,12 q 0,1.520111 1.061631,2.594673 1.0612824,1.074561 2.6076024,1.074561 z M 12,12 Z"
     id="path1"
     style="fill:#ffffff;fill-opacity:1;stroke-width:0.0262088" /></svg>
